<svg xmlns="http://www.w3.org/2000/svg" viewBox="0 0 366.55 368.106" height="1391.267" width="1385.386"><defs><linearGradient y2="90.556" x2="48.448" y1="-32.175" x1="-41.33" id="A" gradientUnits="userSpaceOnUse"><stop offset="0" stop-color="#c0c7e4"/><stop offset="1" stop-color="#263275"/></linearGradient></defs><g transform="translate(113.481 73.185)"><ellipse ry="167.516" rx="166.739" cy="110.868" cx="69.794" fill="url(#A)" stroke="#5661a2" stroke-width="33.073" stroke-linejoin="round" stroke-dashoffset="9.07087" paint-order="markers stroke fill"/><path d="M-6.776-4.568l-.232 165.515c-.114 30.08 27.855 51.167 51.66 50.546l74.367.6c22.265.07 48.358-28.284 48.12-49.322l-.428-61.21c-.37-23.318-25.374-48.033-49.02-48.023l-75.28-.026c-.307 25.98 31.364 42.162 55.398 42.25l16.885-.14c6.1-.055 9.695 4.555 9.77 9.658l-.2 56.933c-.2 3.66-5.763 7.664-9.24 7.712l-70.523-.346c-6.88-.143-9.38-3.895-9.47-9.637l.546-111.398C35.237 17.815 13.652-4.58-6.776-4.568z" fill="#5b607a"/><path d="M-9.557-1.517l-.23 163.4c-.113 29.697 27.5 50.516 51.004 49.904l73.42.582c21.982.07 47.743-27.924 47.508-48.695l-.422-60.43c-.365-23.02-25.05-47.422-48.396-47.412l-74.324-.026C38.702 81.465 69.97 97.442 93.7 97.53l16.67-.138c6.033-.055 9.572 4.497 9.644 9.535l-.196 56.21c-.197 3.614-5.7 7.567-9.123 7.614l-69.627-.34c-6.792-.14-9.262-3.845-9.348-9.514l.54-109.982C31.92 20.582 10.61-1.53-9.557-1.517z" fill="#fff" stroke="#000" stroke-width=".265"/></g></svg>